<svg id="Layer_1" data-name="Layer 1" xmlns="http://www.w3.org/2000/svg" viewBox="0 0 273.25 47.5"><title>repostorium_logo</title><path d="M77.3,16.81l-2.18-3.73-.45,0H71.83v3.71H69.42V4.21h5.25a5.65,5.65,0,0,1,3.78,1.13,4,4,0,0,1,1.33,3.2,4.76,4.76,0,0,1-.63,2.52,3.93,3.93,0,0,1-1.87,1.57l2.77,4.18ZM71.83,11h2.84a3.19,3.19,0,0,0,2.09-.59,2.15,2.15,0,0,0,.72-1.76,2.08,2.08,0,0,0-.72-1.73,3.25,3.25,0,0,0-2.09-.58H71.83Z"/><path d="M89.82,8.42A5.39,5.39,0,0,1,91,12.11c0,.31,0,.54,0,.7H83.85a2.8,2.8,0,0,0,1,1.61,2.76,2.76,0,0,0,1.79.59A3.77,3.77,0,0,0,88,14.73a3.68,3.68,0,0,0,1.18-.8l1.26,1.31a4.76,4.76,0,0,1-1.76,1.22,5.84,5.84,0,0,1-2.29.44,5.32,5.32,0,0,1-2.6-.62,4.28,4.28,0,0,1-1.74-1.71A5.17,5.17,0,0,1,81.46,12a5.24,5.24,0,0,1,.62-2.56,4.32,4.32,0,0,1,1.74-1.73,5.05,5.05,0,0,1,2.53-.63A4.37,4.37,0,0,1,89.82,8.42Zm-1,2.82a2.38,2.38,0,0,0-.7-1.69,2.49,2.49,0,0,0-1.77-.63,2.52,2.52,0,0,0-1.72.62,2.77,2.77,0,0,0-.85,1.7Z"/><path d="M101.05,7.73a4.12,4.12,0,0,1,1.6,1.73,5.6,5.6,0,0,1,.57,2.58,5.51,5.51,0,0,1-.56,2.53,4,4,0,0,1-1.58,1.71,4.56,4.56,0,0,1-2.38.62,4.07,4.07,0,0,1-1.91-.43,3.56,3.56,0,0,1-1.36-1.23V20.3H93.09V7.18h2.34V8.76a3.37,3.37,0,0,1,1.34-1.23,4.09,4.09,0,0,1,1.9-.43A4.48,4.48,0,0,1,101.05,7.73Zm-1,6.33a3,3,0,0,0,.75-2.1,2.94,2.94,0,0,0-.75-2.08,2.76,2.76,0,0,0-3.91,0A2.94,2.94,0,0,0,95.43,12a3,3,0,0,0,.75,2.11,2.57,2.57,0,0,0,2,.81A2.52,2.52,0,0,0,100.09,14.06Z"/><path d="M112.1,7.72a4.36,4.36,0,0,1,1.79,1.72,5,5,0,0,1,.63,2.54,5.19,5.19,0,0,1-.63,2.58,4.36,4.36,0,0,1-1.79,1.72,5.46,5.46,0,0,1-2.63.62,5.6,5.6,0,0,1-2.67-.62A4.36,4.36,0,0,1,105,14.56a5.19,5.19,0,0,1-.64-2.58A5,5,0,0,1,105,9.44a4.36,4.36,0,0,1,1.79-1.72,5.6,5.6,0,0,1,2.67-.62A5.46,5.46,0,0,1,112.1,7.72Zm-4.61,2.19a2.94,2.94,0,0,0-.76,2.11,2.93,2.93,0,0,0,.76,2.1,2.57,2.57,0,0,0,2,.81,2.53,2.53,0,0,0,1.94-.81,3,3,0,0,0,.76-2.1,3,3,0,0,0-.76-2.11,2.53,2.53,0,0,0-1.94-.81A2.57,2.57,0,0,0,107.49,9.91Z"/><path d="M120.81,9.14a4.45,4.45,0,0,0-1.37-.24,1.86,1.86,0,0,0-1,.21.7.7,0,0,0-.35.64.76.76,0,0,0,.44.69A6.66,6.66,0,0,0,120,11a12.43,12.43,0,0,1,1.65.6,3.1,3.1,0,0,1,1.13.88,2.34,2.34,0,0,1,.48,1.54,2.47,2.47,0,0,1-1.08,2.16,4.67,4.67,0,0,1-2.72.76,7,7,0,0,1-2.18-.35,5.22,5.22,0,0,1-1.8-1l.81-1.64a4.77,4.77,0,0,0,1.55.87,5.19,5.19,0,0,0,1.71.32,2,2,0,0,0,1-.23.72.72,0,0,0,.39-.67.82.82,0,0,0-.45-.76,8.33,8.33,0,0,0-1.46-.56,13.11,13.11,0,0,1-1.58-.56,2.87,2.87,0,0,1-1.06-.85A2.32,2.32,0,0,1,116,10a2.49,2.49,0,0,1,1-2.16,4.32,4.32,0,0,1,2.6-.75,6.68,6.68,0,0,1,1.88.27,5.94,5.94,0,0,1,1.65.75l-.85,1.7A6.26,6.26,0,0,0,120.81,9.14Z"/><path d="M130.87,16.21a4.55,4.55,0,0,1-2.41.7,2.92,2.92,0,0,1-2-.72,2.8,2.8,0,0,1-.79-2.16V9.28h-1.35l0-1.71h1.37V4.93H128V7.57h2.76V9.28H128v4.34a1.48,1.48,0,0,0,.25,1,1,1,0,0,0,.76.27,3.39,3.39,0,0,0,1.37-.39Z"/><path d="M139.48,7.72a4.34,4.34,0,0,1,1.78,1.72A4.92,4.92,0,0,1,141.9,12a5.09,5.09,0,0,1-.64,2.58,4.34,4.34,0,0,1-1.78,1.72,5.48,5.48,0,0,1-2.64.62,5.59,5.59,0,0,1-2.66-.62,4.3,4.3,0,0,1-1.79-1.72,5.09,5.09,0,0,1-.64-2.58,4.92,4.92,0,0,1,.64-2.54,4.3,4.3,0,0,1,1.79-1.72,5.59,5.59,0,0,1,2.66-.62A5.48,5.48,0,0,1,139.48,7.72Zm-4.62,2.19a3,3,0,0,0-.75,2.11,3,3,0,0,0,.75,2.1,2.6,2.6,0,0,0,2,.81,2.55,2.55,0,0,0,1.95-.81,3,3,0,0,0,.75-2.1,3,3,0,0,0-.75-2.11,2.55,2.55,0,0,0-1.95-.81A2.6,2.6,0,0,0,134.86,9.91Z"/><path d="M147.6,7.6a3.88,3.88,0,0,1,2-.51V9.35a3.18,3.18,0,0,0-2.38.7,2.64,2.64,0,0,0-.89,2.11v4.65h-2.34V7.18h2.34V9A3.45,3.45,0,0,1,147.6,7.6Z"/><path d="M153.3,3.43a1.42,1.42,0,0,1,.37,1,1.37,1.37,0,0,1-.37,1,1.3,1.3,0,0,1-1,.4,1.28,1.28,0,0,1-1-.4,1.37,1.37,0,0,1-.38-1,1.42,1.42,0,0,1,.38-1,1.27,1.27,0,0,1,1-.39A1.29,1.29,0,0,1,153.3,3.43Zm-2.11,3.75h2.34v9.63h-2.34Z"/><path d="M165.32,7.18v9.63H163V15a3.46,3.46,0,0,1-3.35,1.88,3.33,3.33,0,0,1-2.55-1,3.75,3.75,0,0,1-.94-2.7v-6h2.36v5.34a2.21,2.21,0,0,0,.55,1.59,2,2,0,0,0,1.52.57,2.2,2.2,0,0,0,1.76-.79,2.9,2.9,0,0,0,.65-2V7.18Z"/><path d="M183.43,8.09a3.79,3.79,0,0,1,.93,2.7v6H182V11.48a2.2,2.2,0,0,0-.57-1.61,2,2,0,0,0-1.54-.59,2.34,2.34,0,0,0-1.77.81,2.92,2.92,0,0,0-.66,2v4.76h-2.36V11.48a2.19,2.19,0,0,0-.56-1.61A2,2,0,0,0,173,9.28a2.38,2.38,0,0,0-1.79.81,2.92,2.92,0,0,0-.65,2v4.76h-2.34V7.18h2.34V9A3.51,3.51,0,0,1,174,7.09a3.57,3.57,0,0,1,2.11.6,3.17,3.17,0,0,1,1.2,1.7,3.56,3.56,0,0,1,3.58-2.3A3.35,3.35,0,0,1,183.43,8.09Z"/><path d="M69.42,34.21h2.75l4.18,8.12,4.14-8.12h2.75v12.6H81v-9L77.1,45.52H75.55l-3.94-7.74v9H69.42Z"/><path d="M95.14,37.18v9.63H92.78V45a3.45,3.45,0,0,1-3.35,1.87,3.33,3.33,0,0,1-2.55-1,3.75,3.75,0,0,1-.94-2.7v-6H88.3v5.35a2.17,2.17,0,0,0,.55,1.58,2,2,0,0,0,1.52.58,2.24,2.24,0,0,0,1.76-.79,3,3,0,0,0,.65-2V37.18Z"/><path d="M97.53,37.2h8v1.55l-5.29,6.15,5.43,0v1.91l-8.35,0V45.27l5.29-6.16-5.11,0Z"/><path d="M115.2,38.42a5.42,5.42,0,0,1,1.16,3.69c0,.32,0,.55,0,.71h-7.11a2.8,2.8,0,0,0,1,1.61A2.75,2.75,0,0,0,112,45a3.58,3.58,0,0,0,1.41-.28,3.38,3.38,0,0,0,1.18-.8l1.26,1.32a4.88,4.88,0,0,1-1.76,1.22,5.84,5.84,0,0,1-2.29.43,5.31,5.31,0,0,1-2.6-.61,4.3,4.3,0,0,1-1.74-1.72,5.59,5.59,0,0,1,0-5.1,4.41,4.41,0,0,1,1.74-1.74,5.15,5.15,0,0,1,2.53-.62A4.4,4.4,0,0,1,115.2,38.42Zm-1,2.83a2.36,2.36,0,0,0-.7-1.69,2.49,2.49,0,0,0-1.77-.63,2.52,2.52,0,0,0-1.72.62,2.74,2.74,0,0,0-.85,1.7Z"/><path d="M127.27,37.18v9.63h-2.36V45a3.45,3.45,0,0,1-3.35,1.87,3.33,3.33,0,0,1-2.55-1,3.75,3.75,0,0,1-.94-2.7v-6h2.36v5.35a2.17,2.17,0,0,0,.55,1.58,2,2,0,0,0,1.52.58,2.24,2.24,0,0,0,1.76-.79,3,3,0,0,0,.65-2V37.18Z"/><path d="M145.38,38.09a3.83,3.83,0,0,1,.93,2.71v6H144V41.48a2.25,2.25,0,0,0-.56-1.61,2,2,0,0,0-1.54-.58,2.29,2.29,0,0,0-1.78.81,3,3,0,0,0-.65,2v4.75h-2.36V41.48a2.25,2.25,0,0,0-.56-1.61,2,2,0,0,0-1.53-.58,2.31,2.31,0,0,0-1.79.81,2.92,2.92,0,0,0-.66,2v4.75h-2.34V37.18h2.34V39a3.57,3.57,0,0,1,3.39-1.87,3.51,3.51,0,0,1,2.11.61,3.17,3.17,0,0,1,1.2,1.7,3.57,3.57,0,0,1,3.58-2.31A3.4,3.4,0,0,1,145.38,38.09Z"/><path d="M153.42,34.21h2.41V39.6h6.29V34.21h2.41v12.6h-2.41V41.7h-6.29v5.11h-2.41Z"/><path d="M169.66,33.44a1.51,1.51,0,0,1,0,2,1.36,1.36,0,0,1-1.91,0,1.51,1.51,0,0,1,0-2,1.34,1.34,0,0,1,1.91,0Zm-2.11,3.74h2.34v9.63h-2.34Z"/><path d="M177.05,39.15a4.56,4.56,0,0,0-1.38-.24,1.86,1.86,0,0,0-.95.21.7.7,0,0,0-.35.64.76.76,0,0,0,.44.69,7.4,7.4,0,0,0,1.4.51,14.79,14.79,0,0,1,1.66.61,3,3,0,0,1,1.12.88,2.34,2.34,0,0,1,.48,1.54,2.49,2.49,0,0,1-1.08,2.16,4.67,4.67,0,0,1-2.72.75,6.72,6.72,0,0,1-2.18-.35,5.06,5.06,0,0,1-1.8-1l.81-1.63a4.77,4.77,0,0,0,1.55.87,5.17,5.17,0,0,0,1.71.31,2,2,0,0,0,1-.22.74.74,0,0,0,.39-.68.81.81,0,0,0-.45-.75,7.59,7.59,0,0,0-1.46-.56,11.45,11.45,0,0,1-1.58-.57,2.85,2.85,0,0,1-1.06-.84,2.34,2.34,0,0,1-.45-1.49,2.51,2.51,0,0,1,1-2.17,4.32,4.32,0,0,1,2.6-.74,6.63,6.63,0,0,1,1.88.27,5.66,5.66,0,0,1,1.65.75l-.84,1.69A7.13,7.13,0,0,0,177.05,39.15Z"/><path d="M187.1,46.22a4.55,4.55,0,0,1-2.41.7,2.88,2.88,0,0,1-2-.73,2.76,2.76,0,0,1-.79-2.15V39.29h-1.35l0-1.71h1.37V34.93h2.32v2.65h2.76v1.71h-2.76v4.34a1.37,1.37,0,0,0,.26.94.92.92,0,0,0,.75.28,3.39,3.39,0,0,0,1.37-.39Z"/><path d="M195.71,37.72a4.4,4.4,0,0,1,1.78,1.72,5.44,5.44,0,0,1,0,5.12,4.36,4.36,0,0,1-1.78,1.73,5.47,5.47,0,0,1-2.64.61,5.58,5.58,0,0,1-2.66-.61,4.39,4.39,0,0,1-1.79-1.73,5.44,5.44,0,0,1,0-5.12,4.43,4.43,0,0,1,1.79-1.72,5.58,5.58,0,0,1,2.66-.61A5.47,5.47,0,0,1,195.71,37.72Zm-4.62,2.2a3.33,3.33,0,0,0,0,4.21,2.6,2.6,0,0,0,2,.81,2.55,2.55,0,0,0,2-.81,3.33,3.33,0,0,0,0-4.21,2.55,2.55,0,0,0-2-.81A2.6,2.6,0,0,0,191.09,39.92Z"/><path d="M203.83,37.61a3.88,3.88,0,0,1,1.95-.52v2.27a3.17,3.17,0,0,0-2.38.69,2.67,2.67,0,0,0-.89,2.12v4.64h-2.34V37.18h2.34V39A3.39,3.39,0,0,1,203.83,37.61Z"/><path d="M209.53,33.44a1.54,1.54,0,0,1,0,2,1.29,1.29,0,0,1-1,.39,1.27,1.27,0,0,1-.95-.39,1.51,1.51,0,0,1,0-2,1.28,1.28,0,0,1,.95-.4A1.3,1.3,0,0,1,209.53,33.44Zm-2.11,3.74h2.34v9.63h-2.34Z"/><path d="M214.76,33.44a1.51,1.51,0,0,1,0,2,1.35,1.35,0,0,1-1.9,0,1.51,1.51,0,0,1,0-2,1.33,1.33,0,0,1,1.9,0Zm-2.1,3.74H215v9.63h-2.34Z"/><path d="M231.24,35.35a4,4,0,0,1,1.31,3.2,4.34,4.34,0,0,1-1.31,3.36,5.22,5.22,0,0,1-3.68,1.19h-2.75v3.71H222.4V34.21h5.16A5.4,5.4,0,0,1,231.24,35.35Zm-1.71,5a2.15,2.15,0,0,0,.73-1.77,2,2,0,0,0-.73-1.72,3.25,3.25,0,0,0-2.09-.58h-2.63V41h2.63A3.25,3.25,0,0,0,229.53,40.39Z"/><path d="M241.3,37.72a4.43,4.43,0,0,1,1.79,1.72,5.44,5.44,0,0,1,0,5.12,4.39,4.39,0,0,1-1.79,1.73,5.46,5.46,0,0,1-2.63.61,5.59,5.59,0,0,1-2.67-.61,4.45,4.45,0,0,1-1.79-1.73,5.44,5.44,0,0,1,0-5.12A4.49,4.49,0,0,1,236,37.72a5.59,5.59,0,0,1,2.67-.61A5.46,5.46,0,0,1,241.3,37.72Zm-4.61,2.2a3.3,3.3,0,0,0,0,4.21,2.57,2.57,0,0,0,2,.81,2.53,2.53,0,0,0,1.94-.81,3.3,3.3,0,0,0,0-4.21,2.53,2.53,0,0,0-1.94-.81A2.57,2.57,0,0,0,236.69,39.92Z"/><path d="M245.85,33.46h2.34V46.81h-2.34Z"/><path d="M255.45,39.15a4.5,4.5,0,0,0-1.37-.24,1.83,1.83,0,0,0-1,.21.7.7,0,0,0-.35.64.76.76,0,0,0,.44.69,7.14,7.14,0,0,0,1.4.51,13.85,13.85,0,0,1,1.65.61,3.08,3.08,0,0,1,1.13.88,2.4,2.4,0,0,1,.47,1.54,2.49,2.49,0,0,1-1.08,2.16,4.63,4.63,0,0,1-2.71.75,6.68,6.68,0,0,1-2.18-.35,5.06,5.06,0,0,1-1.8-1l.81-1.63a4.66,4.66,0,0,0,1.55.87,5.17,5.17,0,0,0,1.71.31,2,2,0,0,0,1-.22.74.74,0,0,0,.39-.68.81.81,0,0,0-.45-.75,7.59,7.59,0,0,0-1.46-.56,11,11,0,0,1-1.58-.57,2.88,2.88,0,0,1-1.07-.84,2.34,2.34,0,0,1-.45-1.49,2.51,2.51,0,0,1,1-2.17,4.32,4.32,0,0,1,2.6-.74,6.73,6.73,0,0,1,1.88.27,5.66,5.66,0,0,1,1.65.75l-.85,1.69A6.89,6.89,0,0,0,255.45,39.15Z"/><path d="M266.39,46.81l-2.61-4.21-1.48,1.55v2.66H260V33.46h2.34V41.2l4-4H269l-3.56,3.71,3.78,5.9Z"/><path d="M272.87,33.44a1.51,1.51,0,0,1,0,2,1.36,1.36,0,0,1-1.91,0,1.51,1.51,0,0,1,0-2,1.34,1.34,0,0,1,1.91,0Zm-2.11,3.74h2.34v9.63h-2.34Z"/><path d="M39.25,30.5V17H47V0H30V17h7.25v5.5h-28V17H17V0H0V17H7.25V30.5h-7v17h17v-17h-8v-6h28v6h-7v17h17v-17ZM32,2H45V15H32ZM2,2H15V15H2ZM15.25,45.5h-13v-13h13Zm30,0h-13v-13h13Z"/></svg>