<?xml version="1.0" encoding="UTF-8" standalone="no"?>
<!-- Created with Inkscape (http://www.inkscape.org/) -->

<svg
   xmlns:dc="http://purl.org/dc/elements/1.1/"
   xmlns:cc="http://creativecommons.org/ns#"
   xmlns:rdf="http://www.w3.org/1999/02/22-rdf-syntax-ns#"
   xmlns:svg="http://www.w3.org/2000/svg"
   xmlns="http://www.w3.org/2000/svg"
   xmlns:sodipodi="http://sodipodi.sourceforge.net/DTD/sodipodi-0.dtd"
   xmlns:inkscape="http://www.inkscape.org/namespaces/inkscape"
   id="svg2"
   version="1.1"
   inkscape:version="0.91 r13725"
   xml:space="preserve"
   width="354.189"
   height="210.04875"
   viewBox="0 0 354.189 210.04875"
   sodipodi:docname="MKiDN-01_cmyk.svg"><metadata
     id="metadata8"><rdf:RDF><cc:Work
         rdf:about=""><dc:format>image/svg+xml</dc:format><dc:type
           rdf:resource="http://purl.org/dc/dcmitype/StillImage" /><dc:title></dc:title></cc:Work></rdf:RDF></metadata><defs
     id="defs6"><clipPath
       clipPathUnits="userSpaceOnUse"
       id="clipPath18"><path
         d="m 0,0 3174.79,0 0,3174.8 L 0,3174.8 0,0 Z"
         id="path20"
         inkscape:connector-curvature="0" /></clipPath></defs><sodipodi:namedview
     pagecolor="#ffffff"
     bordercolor="#666666"
     borderopacity="1"
     objecttolerance="10"
     gridtolerance="10"
     guidetolerance="10"
     inkscape:pageopacity="0"
     inkscape:pageshadow="2"
     inkscape:window-width="1920"
     inkscape:window-height="1080"
     id="namedview4"
     showgrid="false"
     inkscape:zoom="0.89691211"
     inkscape:cx="312.28313"
     inkscape:cy="130.42356"
     inkscape:window-x="0"
     inkscape:window-y="0"
     inkscape:window-maximized="0"
     inkscape:current-layer="g16"
     fit-margin-top="0"
     fit-margin-left="0"
     fit-margin-right="0"
     fit-margin-bottom="0" /><g
     id="g10"
     inkscape:groupmode="layer"
     inkscape:label="MKiDN-01_cmyk"
     transform="matrix(1.25,0,0,-1.25,358.35982,416.44515)"><g
       id="g14"
       transform="matrix(0.1,0,0,0.1,-304.15466,33.002119)"><g
         clip-path="url(#clipPath18)"
         id="g16"><path
           inkscape:connector-curvature="0"
           id="path24"
           style="fill:#91979a;fill-opacity:1;fill-rule:nonzero;stroke:none"
           d="m 413.668,2706.74 0.785,141.6 c 0,7.2 0,24.41 0.391,50.41 -5.11,-24.41 -9.434,-41.61 -11.793,-51.21 l -34.985,-140.8 -63.285,0 -35.379,137.6 c -3.929,15.6 -7.468,33.61 -11.398,54.41 0.785,-24.8 1.18,-42.41 1.18,-53.21 l 0,-138.8 -82.157,0 0,287.6 110.457,0 39.309,-143.6 c 0.785,-3.6 3.93,-17.6 9.434,-41.99 3.929,20.79 7.074,34.8 9.043,41.59 l 40.089,144 110.461,0 0,-287.6 -82.152,0" /><path
           inkscape:connector-curvature="0"
           id="path26"
           style="fill:#91979a;fill-opacity:1;fill-rule:nonzero;stroke:none"
           d="m 557.141,2706.74 0,212.4 83.726,0 0,-212.4 -83.726,0 z m 0,234 0,60.8 83.726,0 0,-60.8 -83.726,0" /><path
           inkscape:connector-curvature="0"
           id="path28"
           style="fill:#91979a;fill-opacity:1;fill-rule:nonzero;stroke:none"
           d="m 840.559,2706.74 0,110 c 0,29.2 -5.504,42.4 -28.301,42.4 -20.836,0 -31.059,-14 -31.059,-42.8 l 0,-109.6 -82.937,0 0,212.4 75.468,0 0,-31.19 c 19.262,24.8 42.848,36.79 73.118,36.79 25.55,0 45.597,-8.8 59.351,-25.6 16.121,-19.6 17.297,-45.19 17.297,-82 l 0,-110.4 -82.937,0" /><path
           inkscape:connector-curvature="0"
           id="path30"
           style="fill:#91979a;fill-opacity:1;fill-rule:nonzero;stroke:none"
           d="m 979.07,2706.74 0,212.4 83.73,0 0,-212.4 -83.73,0 z m 0,234 0,60.8 83.73,0 0,-60.8 -83.73,0" /><path
           inkscape:connector-curvature="0"
           id="path32"
           style="fill:#91979a;fill-opacity:1;fill-rule:nonzero;stroke:none"
           d="m 1212.96,2699.14 c -67.61,0 -102.99,24.81 -106.52,74.41 l 80.58,0 c 0,-18.01 9.03,-26.81 27.12,-26.81 17.69,0 27.12,6.4 27.12,17.6 0,15.2 -11.79,16.8 -34.98,22 -64.47,14 -94.34,25.61 -94.34,70.4 0,45.21 34.98,70 102.59,70 62.5,0 96.7,-22.79 101.81,-66.8 l -74.68,0 c -1.19,12.4 -11.41,20.8 -26.34,20.8 -14.94,0 -22.41,-5.6 -22.41,-14.8 0,-15.2 13.76,-15.2 39.7,-21.2 62.11,-14.4 90.81,-25.99 90.81,-71.99 0,-48.41 -37.35,-73.61 -110.46,-73.61" /><path
           inkscape:connector-curvature="0"
           id="path34"
           style="fill:#91979a;fill-opacity:1;fill-rule:nonzero;stroke:none"
           d="m 1448.03,2703.14 c -51.5,0 -70.76,14.81 -70.76,60.81 l 0,106.39 -29.48,0 0,48.8 29.48,0 0,65.6 82.55,0 0,-65.6 38.92,0 0,-48.8 -38.92,0 0,-84.8 c 0,-15.2 7.86,-19.6 27.9,-19.6 3.54,0 7.48,0 11.8,0.4 l 0,-61.2 c -18.08,-1.19 -35.38,-2 -51.49,-2" /><path
           inkscape:connector-curvature="0"
           id="path36"
           style="fill:#91979a;fill-opacity:1;fill-rule:nonzero;stroke:none"
           d="m 1647.3,2876.34 c -21.6,0 -34.98,-14.39 -36.15,-39.6 l 73.91,0 c -1.58,26.4 -14.16,39.6 -37.76,39.6 z m -36.15,-82 c 0.78,-27.2 14.55,-42.39 38.52,-42.39 16.11,0 27.13,6.39 31.05,17.59 l 79.4,0 c -11.39,-45.99 -50.71,-70.4 -115.16,-70.4 -72.33,0 -116.75,44.41 -116.75,112 0,71.2 45.6,115.6 119.9,115.6 73.88,0 118.71,-47.2 118.71,-127.2 l 0,-5.2 -155.67,0" /><path
           inkscape:connector-curvature="0"
           id="path38"
           style="fill:#91979a;fill-opacity:1;fill-rule:nonzero;stroke:none"
           d="m 1933.87,2841.54 c -33.4,0 -48.73,-14.8 -48.73,-47.59 l 0,-87.21 -83.34,0 0,212.4 76.66,0 0,-38.8 c 10.99,31.2 31.05,44.4 64.84,44.4 l 7.48,0 0,-84.4 c -6.29,0.8 -11.8,1.2 -16.91,1.2" /><path
           inkscape:connector-curvature="0"
           id="path40"
           style="fill:#91979a;fill-opacity:1;fill-rule:nonzero;stroke:none"
           d="m 2084.82,2699.14 c -67.61,0 -102.98,24.81 -106.52,74.41 l 80.57,0 c 0,-18.01 9.04,-26.81 27.13,-26.81 17.69,0 27.13,6.4 27.13,17.6 0,15.2 -11.8,16.8 -34.99,22 -64.47,14 -94.35,25.61 -94.35,70.4 0,45.21 35,70 102.6,70 62.5,0 96.7,-22.79 101.81,-66.8 l -74.68,0 c -1.18,12.4 -11.41,20.8 -26.33,20.8 -14.94,0 -22.42,-5.6 -22.42,-14.8 0,-15.2 13.77,-15.2 39.7,-21.2 62.11,-14.4 90.8,-25.99 90.8,-71.99 0,-48.41 -37.34,-73.61 -110.45,-73.61" /><path
           inkscape:connector-curvature="0"
           id="path42"
           style="fill:#91979a;fill-opacity:1;fill-rule:nonzero;stroke:none"
           d="m 2321.07,2703.14 c -51.48,0 -70.74,14.81 -70.74,60.81 l 0,106.39 -29.49,0 0,48.8 29.49,0 0,65.6 82.54,0 0,-65.6 38.93,0 0,-48.8 -38.93,0 0,-84.8 c 0,-15.2 7.87,-19.6 27.91,-19.6 3.54,0 7.48,0 11.8,0.4 l 0,-61.2 c -18.09,-1.19 -35.37,-2 -51.51,-2" /><path
           inkscape:connector-curvature="0"
           id="path44"
           style="fill:#91979a;fill-opacity:1;fill-rule:nonzero;stroke:none"
           d="m 2692.54,2706.74 -81.37,0 -30.27,122.8 -30.26,-122.8 -81.36,0 -68.79,212.4 82.15,0 31.05,-129.6 32.23,129.6 69.98,0 32.23,-129.6 31.05,129.6 79,0 -65.64,-212.4" /><path
           inkscape:connector-curvature="0"
           id="path46"
           style="fill:#91979a;fill-opacity:1;fill-rule:nonzero;stroke:none"
           d="m 2883.96,2867.95 c -25.15,0 -34.19,-17.21 -34.19,-54.81 0,-37.6 9.04,-55.19 34.19,-55.19 25.16,0 34.59,17.59 34.59,55.19 0,37.6 -9.43,54.81 -34.59,54.81 z m 0,-168.81 c -73.49,0 -117.92,43.61 -117.92,114 0,70.41 44.43,113.6 117.92,113.6 73.52,0 117.93,-43.19 117.93,-113.6 0,-70.39 -44.41,-114 -117.93,-114" /><path
           inkscape:connector-curvature="0"
           id="path48"
           style="fill:#b92423;fill-opacity:1;fill-rule:nonzero;stroke:none"
           d="m 421.305,2216.74 -93.399,155.52 -30.25,-31.85 0,-123.67 -121.523,0 0,388.26 121.523,0 0,-128.52 109.856,128.52 142.215,0 -136.383,-143.1 153.898,-245.16 -145.937,0" /><path
           inkscape:connector-curvature="0"
           id="path50"
           style="fill:#b92423;fill-opacity:1;fill-rule:nonzero;stroke:none"
           d="m 783.988,2216.74 0,42.12 c -26,-33.48 -57.84,-49.68 -98.707,-49.68 -34.488,0 -61.554,11.89 -80.129,34.57 -21.757,26.46 -22.816,61.55 -22.816,111.23 l 0,148.5 111.973,0 0,-147.96 c 0,-39.41 7.425,-57.77 38.207,-57.77 28.125,0 41.922,19.43 41.922,58.32 l 0,147.41 111.972,0 0,-286.74 -102.422,0" /><path
           inkscape:connector-curvature="0"
           id="path52"
           style="fill:#b92423;fill-opacity:1;fill-rule:nonzero;stroke:none"
           d="m 957.516,2216.74 113.035,0 0,388.262 -113.035,0 0,-388.262 z" /><path
           inkscape:connector-curvature="0"
           id="path54"
           style="fill:#b92423;fill-opacity:1;fill-rule:nonzero;stroke:none"
           d="m 1255.76,2211.89 c -69.52,0 -95.53,19.97 -95.53,82.07 l 0,143.64 -39.8,0 0,65.88 39.8,0 0,88.56 111.44,0 0,-88.56 52.54,0 0,-65.88 -52.54,0 0,-114.47 c 0,-20.53 10.62,-26.47 37.69,-26.47 4.77,0 10.07,0 15.91,0.54 l 0,-82.61 c -24.41,-1.63 -47.76,-2.7 -69.51,-2.7" /><path
           inkscape:connector-curvature="0"
           id="path56"
           style="fill:#b92423;fill-opacity:1;fill-rule:nonzero;stroke:none"
           d="m 1577.33,2216.74 0,42.12 c -26,-33.48 -57.84,-49.68 -98.71,-49.68 -34.49,0 -61.55,11.89 -80.13,34.57 -21.76,26.46 -22.82,61.55 -22.82,111.23 l 0,148.5 111.98,0 0,-147.96 c 0,-39.41 7.42,-57.77 38.2,-57.77 28.13,0 41.93,19.43 41.93,58.32 l 0,147.41 111.97,0 0,-286.74 -102.42,0" /><path
           inkscape:connector-curvature="0"
           id="path58"
           style="fill:#b92423;fill-opacity:1;fill-rule:nonzero;stroke:none"
           d="m 1927.03,2398.72 c -45.1,0 -65.8,-19.97 -65.8,-64.26 l 0,-117.72 -112.5,0 0,286.74 103.48,0 0,-52.37 c 14.86,42.11 41.93,59.94 87.56,59.94 l 10.09,0 0,-113.94 c -8.49,1.07 -15.91,1.61 -22.83,1.61" /><path
           inkscape:connector-curvature="0"
           id="path60"
           style="fill:#b92423;fill-opacity:1;fill-rule:nonzero;stroke:none"
           d="m 2205.9,2218.36 c -14.34,-44.28 -24.94,-76.14 -41.92,-92.88 -21.75,-22.14 -49.35,-23.76 -88.63,-23.76 -13.26,0 -32.36,0.55 -56.78,2.16 l 0,84.78 31.84,0 c 20.7,0 30.78,6.48 30.78,24.3 0,8.11 -2.13,17.29 -5.84,28.09 l -94.45,262.43 113.55,0 49.36,-173.87 47.75,173.87 105.61,0 -91.27,-285.12" /><path
           inkscape:connector-curvature="0"
           id="path62"
           style="fill:#91979a;fill-opacity:1;fill-rule:nonzero;stroke:none"
           d="m 174.668,1806.74 0,212.41 83.73,0 0,-212.41 -83.73,0 z m 0,234 0,60.8 83.73,0 0,-60.8 -83.73,0" /><path
           inkscape:connector-curvature="0"
           id="path64"
           style="fill:#91979a;fill-opacity:1;fill-rule:nonzero;stroke:none"
           d="m 563.434,2021.54 -25.547,0 0,-142 24.371,0 c 44.808,0 60.14,17.2 60.14,70.8 0,52 -16.121,71.2 -58.964,71.2 z m 77.832,-202.79 c -23.981,-11.21 -57.387,-12.01 -101.418,-12.01 l -92.77,0 0,287.6 109.676,0 c 40.488,0 71.934,-1.2 97.875,-16.4 39.312,-23.2 58.965,-65.6 58.965,-127.6 0,-65.2 -24.766,-110 -72.328,-131.59" /><path
           inkscape:connector-curvature="0"
           id="path66"
           style="fill:#91979a;fill-opacity:1;fill-rule:nonzero;stroke:none"
           d="m 738.59,1806.74 0,57.21 95.121,93.19 -86.871,0 0,62.01 184.754,0 0,-56.81 -92.77,-93.59 97.485,0 0,-62.01 -197.719,0" /><path
           inkscape:connector-curvature="0"
           id="path68"
           style="fill:#91979a;fill-opacity:1;fill-rule:nonzero;stroke:none"
           d="m 973.258,1806.74 0,212.41 83.732,0 0,-212.41 -83.732,0 z m 0,234 0,60.8 83.732,0 0,-60.8 -83.732,0" /><path
           inkscape:connector-curvature="0"
           id="path70"
           style="fill:#91979a;fill-opacity:1;fill-rule:nonzero;stroke:none"
           d="m 1217.36,1976.34 c -21.61,0 -34.98,-14.4 -36.16,-39.6 l 73.9,0 c -1.57,26.4 -14.15,39.6 -37.74,39.6 z m -36.16,-82 c 0.79,-27.2 14.55,-42.4 38.52,-42.4 16.12,0 27.13,6.4 31.06,17.6 l 79.4,0 c -11.4,-45.99 -50.71,-70.39 -115.18,-70.39 -72.32,0 -116.74,44.4 -116.74,111.99 0,71.2 45.6,115.6 119.89,115.6 73.9,0 118.71,-47.2 118.71,-127.2 l 0,-5.2 -155.66,0" /><path
           inkscape:connector-curvature="0"
           id="path72"
           style="fill:#91979a;fill-opacity:1;fill-rule:nonzero;stroke:none"
           d="m 1483.09,1959.94 c -23.2,0 -33.81,-15.99 -33.81,-49.2 0,-31.59 12.97,-49.2 33.81,-49.2 20.83,0 34.2,17.61 34.2,49.2 0,33.21 -11.01,49.2 -34.2,49.2 z m 40.87,-153.2 0,26 c -18.08,-22.8 -40.48,-33.59 -68.39,-33.59 -52.67,0 -89.62,43.59 -89.62,112.79 0,69.2 37.73,113.6 88.84,113.6 25.15,0 45.2,-9.6 61.71,-29.2 l 0,98 80.97,0 0,-287.6 -73.51,0" /><path
           inkscape:connector-curvature="0"
           id="path74"
           style="fill:#91979a;fill-opacity:1;fill-rule:nonzero;stroke:none"
           d="m 1630.1,1806.74 0,57.21 95.11,93.19 -86.85,0 0,62.01 184.75,0 0,-56.81 -92.78,-93.59 97.48,0 0,-62.01 -197.71,0" /><path
           inkscape:connector-curvature="0"
           id="path76"
           style="fill:#91979a;fill-opacity:1;fill-rule:nonzero;stroke:none"
           d="m 1864.77,1806.74 0,212.41 83.73,0 0,-212.41 -83.73,0 z m 0,234 0,60.8 83.73,0 0,-60.8 -83.73,0" /><path
           inkscape:connector-curvature="0"
           id="path78"
           style="fill:#91979a;fill-opacity:1;fill-rule:nonzero;stroke:none"
           d="m 2099.34,1799.15 c -74.69,0 -119.91,44.4 -119.91,113.99 0,70.41 45.22,113.6 119.12,113.6 67.99,0 111.24,-35.2 113.21,-88.4 l -82.95,0 c -1.56,20 -11.39,29.6 -30.67,29.6 -24.35,0 -34.98,-17.6 -34.98,-54.8 0,-37.6 10.24,-55.2 34.2,-55.2 19.26,0 30.28,10.81 32.25,31.6 l 82.93,0 c -3.54,-55.59 -46,-90.39 -113.2,-90.39" /><path
           inkscape:connector-curvature="0"
           id="path80"
           style="fill:#91979a;fill-opacity:1;fill-rule:nonzero;stroke:none"
           d="m 2333.22,1803.14 c -51.5,0 -70.76,14.8 -70.76,60.81 l 0,106.39 -29.47,0 0,48.81 29.47,0 0,65.59 82.56,0 0,-65.59 38.91,0 0,-48.81 -38.91,0 0,-84.8 c 0,-15.2 7.85,-19.6 27.91,-19.6 3.53,0 7.46,0 11.78,0.4 l 0,-61.2 c -18.07,-1.19 -35.37,-2 -51.49,-2" /><path
           inkscape:connector-curvature="0"
           id="path82"
           style="fill:#91979a;fill-opacity:1;fill-rule:nonzero;stroke:none"
           d="m 2699.61,1806.74 -81.37,0 -30.27,122.8 -30.26,-122.8 -81.36,0 -68.79,212.41 82.15,0 31.05,-129.61 32.23,129.61 69.98,0 32.23,-129.61 31.05,129.61 79,0 -65.64,-212.41" /><path
           inkscape:connector-curvature="0"
           id="path84"
           style="fill:#91979a;fill-opacity:1;fill-rule:nonzero;stroke:none"
           d="m 2917.38,1901.54 c -38.51,-14.8 -62.89,-12 -62.89,-32.39 0,-12.01 8.26,-19.21 23.6,-19.21 27.91,0 39.68,12.8 39.68,40.8 0,3.6 0,7.2 -0.39,10.8 z m 7.48,-94.8 -5.11,20.4 c -21.23,-19.2 -45.22,-27.99 -75.86,-27.99 -47.58,0 -73.91,24.8 -73.91,67.59 0,47.21 29.08,60.4 90.8,68.4 40.1,5.2 57.38,3.2 57.38,22.8 0,12.4 -9.82,17.6 -29.86,17.6 -17.3,0 -26.35,-6.79 -27.91,-21.2 l -80.98,0 c 0.79,47.6 38.52,72.4 111.64,72.4 38.13,0 67.21,-8.4 81.37,-17.99 22.01,-15.2 26.72,-31.21 26.72,-59.6 l 0,-118.41 c 0,-7.6 3.15,-14 9.04,-18 l 0,-6 -83.32,0" /><path
           inkscape:connector-curvature="0"
           id="path86"
           style="fill:#91979a;fill-opacity:1;fill-rule:nonzero;stroke:none"
           d="m 356.672,1406.74 -79.406,132.81 c -4.328,7.19 -10.219,21.19 -16.508,41.19 2.355,-14.4 2.355,-27.6 2.355,-39.19 l 0,-134.81 -86.086,0 0,287.6 86.086,0 79.403,-133.6 c 4.714,-7.6 10.218,-21.19 16.511,-41.19 -1.964,12.39 -2.355,25.59 -2.355,39.2 l 0,135.59 86.473,0 0,-287.6 -86.473,0" /><path
           inkscape:connector-curvature="0"
           id="path88"
           style="fill:#91979a;fill-opacity:1;fill-rule:nonzero;stroke:none"
           d="m 628.688,1501.55 c -38.528,-14.81 -62.895,-12 -62.895,-32.4 0,-12.01 8.254,-19.2 23.582,-19.2 27.91,0 39.703,12.79 39.703,40.8 0,3.59 0,7.19 -0.39,10.8 z m 7.464,-94.81 -5.105,20.4 c -21.234,-19.2 -45.207,-27.99 -75.871,-27.99 -47.563,0 -73.899,24.79 -73.899,67.59 0,47.2 29.09,60.4 90.801,68.4 40.094,5.21 57.395,3.2 57.395,22.8 0,12.41 -9.828,17.6 -29.879,17.6 -17.293,0 -26.332,-6.79 -27.906,-21.2 l -80.973,0 c 0.785,47.6 38.519,72.4 111.633,72.4 38.132,0 67.218,-8.4 81.367,-17.99 22.012,-15.2 26.73,-31.21 26.73,-59.6 l 0,-118.4 c 0,-7.61 3.145,-14.01 9.043,-18.01 l 0,-6 -83.336,0" /><path
           inkscape:connector-curvature="0"
           id="path90"
           style="fill:#91979a;fill-opacity:1;fill-rule:nonzero;stroke:none"
           d="m 888.219,1541.55 c -33.414,0 -48.746,-14.81 -48.746,-47.61 l 0,-87.2 -83.336,0 0,212.41 76.652,0 0,-38.81 c 11.012,31.2 31.055,44.4 64.863,44.4 l 7.465,0 0,-84.39 c -6.289,0.8 -11.793,1.2 -16.898,1.2" /><path
           inkscape:connector-curvature="0"
           id="path92"
           style="fill:#91979a;fill-opacity:1;fill-rule:nonzero;stroke:none"
           d="m 1040.73,1567.94 c -25.15,0 -34.2,-17.19 -34.2,-54.8 0,-37.6 9.05,-55.2 34.2,-55.2 25.16,0 34.59,17.6 34.59,55.2 0,37.61 -9.43,54.8 -34.59,54.8 z m 0,-168.79 c -73.503,0 -117.921,43.59 -117.921,113.99 0,70.41 44.418,113.6 117.921,113.6 73.51,0 117.93,-43.19 117.93,-113.6 0,-70.4 -44.42,-113.99 -117.93,-113.99" /><path
           inkscape:connector-curvature="0"
           id="path94"
           style="fill:#91979a;fill-opacity:1;fill-rule:nonzero;stroke:none"
           d="m 1297.81,1559.94 c -23.2,0 -33.81,-16 -33.81,-49.19 0,-31.6 12.97,-49.2 33.81,-49.2 20.83,0 34.2,17.6 34.2,49.2 0,33.19 -11.01,49.19 -34.2,49.19 z m 40.88,-153.2 0,26 c -18.08,-22.79 -40.49,-33.59 -68.4,-33.59 -52.67,0 -89.62,43.59 -89.62,112.79 0,69.2 37.73,113.6 88.83,113.6 25.16,0 45.21,-9.6 61.72,-29.2 l 0,98 80.97,0 0,-287.6 -73.5,0" /><path
           inkscape:connector-curvature="0"
           id="path96"
           style="fill:#91979a;fill-opacity:1;fill-rule:nonzero;stroke:none"
           d="m 1562.35,1567.94 c -25.16,0 -34.2,-17.19 -34.2,-54.8 0,-37.6 9.04,-55.2 34.2,-55.2 25.15,0 34.59,17.6 34.59,55.2 0,37.61 -9.44,54.8 -34.59,54.8 z m 0,-168.79 c -73.51,0 -117.93,43.59 -117.93,113.99 0,70.41 44.42,113.6 117.93,113.6 73.51,0 117.92,-43.19 117.92,-113.6 0,-70.4 -44.41,-113.99 -117.92,-113.99" /><path
           inkscape:connector-curvature="0"
           id="path98"
           style="fill:#91979a;fill-opacity:1;fill-rule:nonzero;stroke:none"
           d="m 1977.09,1406.74 -81.37,0 -30.27,122.81 -30.25,-122.81 -81.37,0 -68.79,212.41 82.15,0 31.05,-129.6 32.23,129.6 69.98,0 32.23,-129.6 31.05,129.6 79,0 -65.64,-212.41" /><path
           inkscape:connector-curvature="0"
           id="path100"
           style="fill:#91979a;fill-opacity:1;fill-rule:nonzero;stroke:none"
           d="m 2169.71,1576.34 c -21.62,0 -34.98,-14.39 -36.17,-39.6 l 73.9,0 c -1.56,26.4 -14.14,39.6 -37.73,39.6 z m -36.17,-82 c 0.8,-27.2 14.55,-42.4 38.53,-42.4 16.11,0 27.13,6.4 31.06,17.61 l 79.39,0 c -11.39,-46.01 -50.7,-70.4 -115.18,-70.4 -72.32,0 -116.73,44.39 -116.73,112 0,71.19 45.6,115.59 119.88,115.59 73.9,0 118.71,-47.2 118.71,-127.19 l 0,-5.21 -155.66,0" /><path
           inkscape:connector-curvature="0"
           id="path102"
           style="fill:#91979a;fill-opacity:1;fill-rule:nonzero;stroke:none"
           d="m 2429.53,1562.34 c -22.4,0 -33.42,-16 -33.42,-48 0,-33.59 10.63,-50.4 33.42,-50.4 24.38,0 34.98,16.41 34.98,50 0,31.2 -12.97,48.4 -34.98,48.4 z m -1.58,-241.19 c -59.75,0 -95.12,23.59 -100.63,62.79 l 82.17,0 c 1.96,-10.4 9.44,-14.39 24.36,-14.39 27.52,0 31.05,12 31.05,44.39 l 0,11.6 c -14.14,-13.99 -33.4,-20.8 -58.16,-20.8 -56.21,0 -93.17,42.4 -93.17,107.6 0,70 36.16,112.4 89.22,112.4 29.89,0 51.9,-10.4 68.4,-33.2 l 0,27.61 73.52,0 0,-196.01 c 0,-73.99 -32.23,-101.99 -116.76,-101.99" /><path
           inkscape:connector-curvature="0"
           id="path104"
           style="fill:#91979a;fill-opacity:1;fill-rule:nonzero;stroke:none"
           d="m 2691.33,1567.94 c -25.16,0 -34.2,-17.19 -34.2,-54.8 0,-37.6 9.04,-55.2 34.2,-55.2 25.15,0 34.59,17.6 34.59,55.2 0,37.61 -9.44,54.8 -34.59,54.8 z m 0,-168.79 c -73.52,0 -117.93,43.59 -117.93,113.99 0,70.41 44.41,113.6 117.93,113.6 73.49,0 117.91,-43.19 117.91,-113.6 0,-70.4 -44.42,-113.99 -117.91,-113.99" /><path
           inkscape:connector-curvature="0"
           id="path106"
           style="fill:#b92423;fill-opacity:1;fill-rule:evenodd;stroke:none"
           d="m 2869.88,1407.09 127,0 0,126.988 -127,0 0,-126.988 z" /></g></g></g></svg>